<svg xmlns="http://www.w3.org/2000/svg" viewBox="0 0 64 64">
  <defs>
    <linearGradient id="brazeGradient" x1="0%" y1="0%" x2="100%" y2="100%">
      <stop offset="0%" style="stop-color:#FF6B35"/>
      <stop offset="100%" style="stop-color:#E53935"/>
    </linearGradient>
  </defs>
  <rect width="64" height="64" rx="12" fill="url(#brazeGradient)"/>
  <path d="M20 16h8c6.627 0 12 5.373 12 12 0 3.314-1.343 6.314-3.515 8.485C38.657 38.686 40 41.686 40 45c0 6.627-5.373 12-12 12H20V16zm8 20c2.209 0 4-1.791 4-4s-1.791-4-4-4h-4v8h4zm0 16c2.209 0 4-1.791 4-4s-1.791-4-4-4h-4v8h4z" fill="white"/>
  <circle cx="48" cy="20" r="6" fill="white" opacity="0.8"/>
</svg>
